<svg width="906" height="152" viewBox="0 0 906 152" fill="none" xmlns="http://www.w3.org/2000/svg">
<path d="M41.7044 65.7717C41.4036 66.7745 41.0025 68.2787 40.7017 69.2814C41.1028 67.7773 42.1056 66.4736 43.4092 65.7717C46.1167 62.2619 50.3284 60.2564 54.7407 60.2564C46.6181 57.95 44.1111 60.5572 43.4092 61.8608C42.7072 63.1644 42.1056 64.4681 41.7044 65.7717Z" fill="#2A72E5"/>
<path d="M50.1282 53.337L48.9248 54.4401C50.3287 53.337 52.5348 53.5376 56.0446 55.2423C56.8468 53.8384 57.7493 52.6351 58.8524 51.6323C57.1476 50.4289 55.5432 49.3258 54.4401 49.8272C52.9359 50.9303 51.4318 52.0334 50.1282 53.337Z" fill="#2A72E5"/>
<path d="M66.774 43.9109C65.5707 44.4123 63.8659 45.014 62.6626 45.5154C63.2643 46.2173 63.8659 46.9193 64.3673 47.7215C66.1723 46.7188 68.1779 45.8162 70.0832 45.1143C69.7824 43.7104 69.6821 43.0084 70.0832 42.8079C69.1807 43.1087 67.7768 43.5098 66.774 43.9109Z" fill="#2A72E5"/>
<path d="M86.9303 40.1004C85.0251 40.301 82.5181 40.5015 80.6128 40.7021C79.61 40.9026 79.2089 41.3037 78.7075 42.8079C81.3148 42.3065 83.8217 42.0057 86.429 41.8051C87.2312 40.7021 88.4345 40.0001 89.8384 40.0001L86.9303 40.1004Z" fill="#2A72E5"/>
<path d="M107.988 41.2035C106.183 40.9026 103.877 40.6018 102.072 40.4012C100.267 40.2007 98.462 40.6018 97.0581 41.6046C99.7656 41.7048 102.473 42.0057 105.181 42.4068C107.186 41.5043 109.392 41.3037 111.498 41.8051C110.395 41.7048 108.991 41.404 107.988 41.2035Z" fill="#2A72E5"/>
<path d="M126.841 47.2201C125.538 46.6184 123.733 45.8162 122.429 45.2145C119.822 44.1114 116.914 43.9109 114.206 44.5125C116.412 45.2145 118.518 46.0167 120.524 46.9192C124.134 46.5181 127.844 47.3203 130.852 49.3259C129.649 48.7242 128.145 47.8217 126.841 47.2201Z" fill="#2A72E5"/>
<path d="M145.694 66.8748C144.791 64.3678 143.588 61.9611 142.083 59.755L141.181 58.4514C137.872 53.8386 132.657 50.9305 126.941 50.8302C128.245 51.833 129.549 53.0363 130.551 54.34C140.078 55.6436 146.696 64.067 147.298 75.6993C147.198 72.7912 146.696 69.7829 145.694 66.8748Z" fill="#2A72E5"/>
<path d="M132.056 102.574C133.861 101.371 135.566 100.067 137.271 98.5627C137.872 97.961 138.674 97.1588 139.276 96.5571C151.209 82.7187 145.794 62.8636 132.959 59.2535C133.059 59.8552 133.159 60.5572 133.159 61.1588C133.159 61.2591 133.159 61.3594 133.159 61.4597C133.159 62.0613 133.059 62.7633 132.959 63.3649C146.596 69.5822 145.293 94.1505 130.752 103.376L132.056 102.574Z" fill="#2A72E5"/>
<path d="M114.106 109.894C115.911 109.393 118.217 108.791 120.022 108.189C137.571 101.571 140.379 74.6964 130.551 68.2786C129.448 69.5822 128.245 70.6852 126.941 71.688C135.264 80.8134 126.741 106.786 111.097 110.496L114.106 109.894Z" fill="#2A72E5"/>
<path d="M93.749 112C95.3535 112 97.5596 112 99.2643 111.9C113.805 110.396 124.133 83.7215 120.523 75.2981C118.518 76.2006 116.312 76.9025 114.206 77.5042C114.206 88.234 99.7657 112.1 89.437 111.799C90.7406 111.9 92.4454 112 93.749 112Z" fill="#2A72E5"/>
<path d="M72.5907 109.192C74.1951 109.593 76.4013 110.095 78.0057 110.396C84.1227 110.797 99.3651 90.2396 104.981 79.3092C102.273 79.61 99.5656 79.9109 96.8581 79.9109C92.4458 84.2228 80.8135 97.6602 78.5071 100.267C72.5907 107.086 70.3846 108.39 69.6826 108.29L72.5907 109.192Z" fill="#2A72E5"/>
<path d="M54.9416 101.471C56.7466 102.674 58.5516 103.677 60.4569 104.68L60.6575 104.78C60.9583 103.075 75.4987 85.727 86.6296 79.61C84.0224 79.3092 81.4151 78.9081 78.9082 78.3064C65.5711 83.4206 51.9332 99.064 54.2396 100.969L54.9416 101.471Z" fill="#2A72E5"/>
<path d="M45.2145 92.1448C45.8161 92.947 46.7187 94.1504 47.4206 94.9526C44.4122 90.3398 57.0474 78.5069 70.1838 75.6991C68.1783 74.8969 66.273 73.9944 64.468 72.9916C52.4345 74.2952 40.9025 82.8189 43.3092 88.7353C43.8106 89.8384 44.6128 91.2423 45.2145 92.1448Z" fill="#2A72E5"/>
<path d="M40 75.3985C40 75.599 40 75.7996 40 76.0002C40.1003 77.0029 40.1003 78.3066 40.2005 79.3094C39.8997 72.7913 49.727 68.5795 58.8524 68.8804C57.7493 67.7773 56.7465 66.4737 56.0446 65.1701C48.4234 64.1673 44.2117 66.1729 42.0056 67.9779C40.702 70.2843 40.1003 72.7912 40 75.3985Z" fill="#2A72E5"/>
<path d="M200.549 55.2423H169.663V61.4596H181.496V96.5571H188.816V61.4596H200.549V55.2423Z" fill="white"/>
<path d="M224.014 68.6794C222.711 67.476 221.106 66.4732 219.502 65.9719C215.591 64.6682 211.479 64.6682 207.569 65.9719C205.864 66.5735 204.36 67.476 203.056 68.6794C201.752 69.8827 200.75 71.3869 200.148 73.0916C199.446 74.9969 199.045 77.1028 199.145 79.1084V82.7184C199.145 84.724 199.446 86.8298 200.148 88.7351C200.75 90.4398 201.752 91.944 203.056 93.1474C204.36 94.3507 205.864 95.3535 207.569 95.8549C211.479 97.1585 215.591 97.1585 219.502 95.8549C221.206 95.2532 222.711 94.3507 224.014 93.1474C225.318 91.8437 226.321 90.3396 226.922 88.7351C227.624 86.8298 228.025 84.724 227.925 82.7184V79.1084C227.925 77.0025 227.624 74.9969 226.922 73.0916C226.321 71.4872 225.318 69.983 224.014 68.6794ZM216.393 90.2393C214.488 90.841 212.482 90.841 210.677 90.2393C209.875 89.9385 209.073 89.5373 208.371 88.8354C207.669 88.1334 207.167 87.3312 206.867 86.3284C206.465 85.1251 206.265 83.9217 206.365 82.6181V79.2086C206.165 77.0025 206.867 74.7964 208.27 73.0916C211.379 70.685 215.691 70.685 218.8 73.0916C220.304 74.7964 221.006 77.0025 220.705 79.2086V82.6181C220.705 83.9217 220.504 85.1251 220.103 86.3284C219.803 87.2309 219.301 88.1334 218.599 88.8354C217.997 89.4371 217.195 89.9385 216.393 90.2393Z" fill="white"/>
<path d="M261.017 65.6713H251.892L240.56 78.5069V55.2423H233.34V96.4568H240.56V87.2312L243.97 83.4206L252.293 96.3565H261.519L249.084 78.3064L261.017 65.6713Z" fill="white"/>
<path d="M285.385 67.5765C284.181 66.674 282.878 66.0723 281.474 65.6712C277.563 64.5681 273.351 64.7687 269.541 66.2729C267.635 67.0751 265.931 67.9776 264.226 69.181L264.126 69.2812L267.736 74.596L267.836 74.4957C270.243 72.4901 273.351 71.4874 276.46 71.4874C277.964 71.3871 279.368 71.7882 280.571 72.6907C281.474 73.7938 281.975 75.298 281.875 76.7019V77.8049H274.956C273.151 77.8049 271.245 78.0055 269.44 78.5069C268.137 78.908 266.833 79.5097 265.83 80.3119C264.928 81.0138 264.226 82.0166 263.825 83.1197C263.424 84.2227 263.223 85.4261 263.223 86.6294V88.4344C263.123 90.8411 264.126 93.2478 266.031 94.8523C268.237 96.4567 271.045 97.259 273.752 97.1587C274.655 97.1587 275.457 97.0584 276.36 96.8579C277.262 96.6573 278.064 96.3564 278.967 96.0556C279.769 95.7548 280.471 95.2534 281.173 94.752C281.674 94.3509 282.075 93.8495 282.477 93.2478L282.577 96.7576H289.095V75.0974C289.095 73.6935 288.794 72.1893 288.192 70.8857C287.39 69.4818 286.488 68.479 285.385 67.5765ZM281.775 83.3202V84.0222C281.775 84.9247 281.775 85.9275 281.574 86.83C281.474 87.6322 281.073 88.2339 280.471 88.8356C278.766 90.3397 276.46 91.0417 274.153 90.8411C273.05 90.9414 271.947 90.6406 271.145 90.0389C270.443 89.5375 270.042 88.635 270.142 87.7325V87.0305C270.142 86.0277 270.443 85.025 271.245 84.2227C272.349 83.4205 273.652 83.0194 275.056 83.22L281.775 83.3202Z" fill="white"/>
<path d="M335.925 67.9774C334.922 66.9746 333.819 66.2727 332.516 65.7713C331.212 65.2699 329.808 65.0694 328.404 65.0694C326.399 64.9691 324.493 65.3702 322.688 66.2727C321.184 67.0749 319.88 68.2783 318.978 69.6822C318.376 68.2783 317.273 67.0749 315.869 66.373C314.265 65.4705 312.56 65.0694 310.755 65.0694C308.95 65.0694 307.145 65.4705 305.541 66.2727C304.137 67.0749 303.034 68.178 302.332 69.4816V65.671H295.513V96.5568H302.733V77.6042C302.632 75.8994 303.134 74.1947 304.237 72.9914C305.34 71.9886 306.744 71.3869 308.248 71.4872C308.95 71.4872 309.652 71.5875 310.354 71.788C311.056 71.9886 311.557 72.3897 312.059 72.8911C312.56 73.4928 312.961 74.1947 313.262 74.8966C313.563 75.8994 313.763 77.0025 313.663 78.1056V96.6571H320.883V78.0053C320.883 76.9022 320.984 75.8994 321.385 74.8966C321.685 74.1947 322.087 73.4928 322.688 72.8911C323.19 72.3897 323.791 72.0889 324.493 71.8883C325.797 71.4872 327.201 71.4872 328.605 71.8883C329.307 72.0889 329.808 72.3897 330.309 72.8911C330.911 73.4928 331.312 74.1947 331.513 74.8966C331.814 75.9997 332.014 77.1028 331.914 78.3061V96.6571H339.134V76.802C339.134 75.0972 338.833 73.2922 338.231 71.6878C337.73 70.1836 336.928 68.9802 335.925 67.9774Z" fill="white"/>
<path d="M366.51 67.5765C365.307 66.674 364.003 66.0723 362.599 65.6712C358.688 64.5681 354.477 64.7687 350.666 66.2729C348.761 67.0751 347.056 67.9776 345.351 69.181L345.251 69.2812L348.861 74.596L348.962 74.4957C351.368 72.4901 354.477 71.4874 357.585 71.4874C359.09 71.3871 360.493 71.7882 361.697 72.6907C362.599 73.7938 363.101 75.298 363.001 76.7019V77.8049H356.081C354.276 77.8049 352.371 78.0055 350.566 78.5069C349.262 78.908 347.959 79.5097 346.956 80.3119C346.053 81.0138 345.351 82.0166 344.95 83.1197C344.549 84.2227 344.349 85.4261 344.349 86.6294V88.4344C344.248 90.8411 345.251 93.2478 347.156 94.8523C349.363 96.4567 352.17 97.259 354.878 97.1587C355.78 97.1587 356.583 97.0584 357.485 96.8579C358.388 96.6573 359.19 96.3564 360.092 96.0556C360.895 95.7548 361.597 95.2534 362.299 94.752C362.8 94.3509 363.201 93.8495 363.602 93.2478L363.702 96.7576H370.221V75.0974C370.221 73.6935 369.92 72.1893 369.318 70.8857C368.516 69.4818 367.613 68.479 366.51 67.5765ZM362.9 83.3202V84.0222C362.9 84.9247 362.9 85.9275 362.7 86.83C362.599 87.6322 362.198 88.2339 361.597 88.8356C359.892 90.3397 357.585 91.0417 355.279 90.8411C354.176 90.9414 353.073 90.6406 352.271 90.0389C351.569 89.5375 351.168 88.635 351.268 87.7325V87.0305C351.268 86.0277 351.569 85.025 352.371 84.2227C353.474 83.4205 354.778 83.0194 356.182 83.22L362.9 83.3202Z" fill="white"/>
<path d="M404.315 65.6713H395.19L383.858 78.5069V55.2423H376.638V96.4568H383.858V87.2312L387.268 83.4206L395.591 96.3565H404.816L392.382 78.3064L404.315 65.6713Z" fill="white"/>
<path d="M443.624 80.6125L429.986 55.3423H421.663V96.5568H428.482V68.0777C428.482 68.0777 430.287 71.2866 430.788 72.1891L444.527 96.5568H452.85V55.3423H446.031V85.125C446.031 85.0248 444.025 81.3144 443.624 80.6125Z" fill="white"/>
<path d="M482.432 68.3787C481.229 67.1754 479.725 66.3731 478.12 65.8718C476.416 65.2701 474.51 64.9693 472.705 65.0695C470.8 65.0695 468.995 65.3704 467.19 65.8718C465.485 66.3731 463.981 67.2757 462.778 68.479C461.474 69.7826 460.471 71.2868 459.77 72.9915C458.967 75.0974 458.666 77.2032 458.666 79.4094V82.6183C458.566 85.025 458.967 87.3314 459.87 89.5375C460.572 91.2422 461.675 92.7464 463.079 93.9498C464.382 95.0528 465.987 95.8551 467.591 96.2562C469.296 96.7576 471.001 96.9581 472.806 96.9581C475.313 97.0584 477.82 96.7576 480.226 96.0556C482.132 95.5542 483.836 94.752 485.441 93.6489H485.541L482.533 88.4344H482.432C481.029 89.2367 479.524 89.9386 478.02 90.3398C476.416 90.7409 474.811 90.9414 473.207 90.9414C471.201 91.0417 469.196 90.44 467.691 89.1364C466.388 87.7325 465.686 85.7269 465.786 83.7214H486.343V78.6071C486.343 76.6016 486.042 74.596 485.341 72.6907C484.639 71.0863 483.636 69.5821 482.432 68.3787ZM472.605 70.986C473.608 70.986 474.711 71.0862 475.714 71.4874C476.516 71.7882 477.218 72.1893 477.82 72.791C478.321 73.2924 478.722 73.9943 479.023 74.6963C479.224 75.3982 479.424 76.2005 479.424 77.0027V78.206H465.786V77.103C465.786 75.4985 466.388 73.8941 467.491 72.6907C468.795 71.4874 470.7 70.8857 472.605 70.986Z" fill="white"/>
<path d="M507.903 89.9387C507.201 90.2395 506.399 90.4401 505.697 90.6406C504.995 90.7409 504.293 90.8412 503.591 90.8412C502.789 90.8412 502.087 90.6406 501.485 90.2395C500.884 89.5376 500.583 88.6351 500.683 87.7326V71.688H508.405V65.6713H500.683V55.2423L493.463 57.8495V65.6713H488.549V71.688H493.463V87.7326C493.463 89.0362 493.563 90.3398 493.864 91.6434C494.165 92.7465 494.666 93.7493 495.368 94.5515C496.171 95.3537 497.173 96.0557 498.276 96.3565C499.68 96.7576 501.184 97.0584 502.689 96.9582C503.992 96.9582 505.196 96.8579 506.399 96.5571C507.301 96.3565 508.204 96.0557 509.006 95.6546H509.106L508.003 89.8384L507.903 89.9387Z" fill="white"/>
<path d="M540.092 89.4371L534.777 65.7714V65.6711H528.059L522.543 89.4371H522.443L517.93 65.7714V65.6711H510.209L517.83 96.4566V96.5569H526.153L531.167 74.997H531.267L536.281 96.5569H544.605L552.226 65.8717V65.7714H545.006L540.092 89.4371Z" fill="white"/>
<path d="M579.301 68.6794C577.998 67.476 576.393 66.4732 574.789 65.9719C570.978 64.6682 566.767 64.6682 562.856 65.9719C561.151 66.5735 559.647 67.476 558.343 68.6794C557.04 69.8827 556.037 71.3869 555.435 73.0916C554.733 74.9969 554.332 77.1028 554.432 79.1084V82.7184C554.432 84.724 554.733 86.8298 555.435 88.7351C556.037 90.4398 557.04 91.944 558.343 93.1474C559.647 94.3507 561.151 95.3535 562.856 95.8549C566.767 97.1585 570.878 97.1585 574.789 95.8549C576.494 95.2532 577.998 94.3507 579.301 93.1474C580.605 91.8437 581.608 90.3396 582.209 88.7351C582.911 86.8298 583.312 84.724 583.212 82.7184V79.1084C583.212 77.0025 582.911 74.9969 582.209 73.0916C581.608 71.4872 580.605 69.983 579.301 68.6794ZM571.68 90.2393C569.775 90.841 567.769 90.841 565.964 90.2393C565.162 89.9385 564.36 89.5373 563.658 88.8354C562.956 88.1334 562.455 87.3312 562.154 86.3284C561.753 85.1251 561.552 83.9217 561.552 82.6181V79.2086C561.351 77.0025 562.053 74.7964 563.457 73.0916C566.566 70.685 570.878 70.685 573.987 73.0916C575.491 74.7964 576.193 77.0025 575.892 79.2086V82.6181C575.892 83.9217 575.691 85.1251 575.39 86.3284C575.09 87.2309 574.588 88.1334 573.886 88.8354C573.285 89.4371 572.482 89.9385 571.68 90.2393Z" fill="white"/>
<path d="M606.578 65.17C605.775 65.0697 604.973 64.9694 604.271 64.9694C602.366 64.8691 600.461 65.3705 598.856 66.3733C597.553 67.2758 596.45 68.5794 595.647 69.9833V65.5711H588.728V96.4568H595.948V78.2062C595.948 77.3037 596.149 76.3009 596.449 75.4986C596.75 74.6964 597.252 73.9944 597.853 73.3928C598.455 72.7911 599.157 72.2897 599.959 71.9889C600.761 71.688 601.664 71.4875 602.667 71.4875C603.369 71.4875 604.171 71.4875 604.873 71.6881C605.475 71.7883 605.976 71.9889 606.477 72.1894H606.578L608.683 65.6713H608.583C607.881 65.4708 607.179 65.2702 606.578 65.17Z" fill="white"/>
<path d="M627.736 78.5069L639.769 65.6713H630.644L619.312 78.5069V55.2423H612.092V96.4568H619.312V87.2312L622.722 83.4206L631.045 96.3565H640.271L627.736 78.5069Z" fill="white"/>
<path d="M842.317 89.6511L833.8 67.9308C833.228 66.5018 832.657 64.6727 831.685 61.7005V96.5102H824.883V55.2987H835.286L845.403 80.9058L855.12 55.2987H865.638V96.5102H858.721V61.7005C857.864 65.13 857.292 66.4447 856.778 67.9308L848.147 89.6511H842.317Z" fill="#2A72E5"/>
<path d="M796.588 96.5102L781.441 55.2987H789.272L800.075 87.5363L811.278 55.2987H818.708L803.161 96.5102H796.588Z" fill="#2A72E5"/>
<path d="M749.695 55.2987H776.217V61.3575H756.954V72.4463H775.017V78.3909H756.954V90.4514H776.617V96.5102H749.695V55.2987Z" fill="#2A72E5"/>
<path d="M723.132 78.905V72.9604H742.566V78.905H723.132Z" fill="#2A72E5"/>
<path d="M719.589 65.0155L707.357 78.0477L720.103 96.51H710.901L702.327 83.1349L698.726 87.136V96.51H691.524V53.298H698.726V78.3335L710.501 65.0155H719.589Z" fill="#2A72E5"/>
<path d="M684.948 65.0156V70.7315L669.515 90.2226H685.862V96.5101H660.026V91.5945L676.145 71.3031H661.17V65.0156H684.948Z" fill="#2A72E5"/>
</svg>
