<svg width="906" height="152" viewBox="0 0 906 152" fill="none" xmlns="http://www.w3.org/2000/svg">
<path d="M41.7044 65.7718C41.4036 66.7746 41.0025 68.2788 40.7017 69.2816C41.1028 67.7774 42.1056 66.4738 43.4092 65.7718C46.1167 62.2621 50.3284 60.2565 54.7407 60.2565C46.6181 57.9501 44.1111 60.5573 43.4092 61.8609C42.7072 63.1645 42.1056 64.4682 41.7044 65.7718Z" fill="#2A72E5"/>
<path d="M50.1282 53.3371L48.9248 54.4402C50.3287 53.3371 52.5348 53.5377 56.0446 55.2424C56.8468 53.8385 57.7493 52.6352 58.8524 51.6324C57.1476 50.4291 55.5432 49.326 54.4401 49.8274C52.9359 50.9304 51.4318 52.0335 50.1282 53.3371Z" fill="#2A72E5"/>
<path d="M66.774 43.9109C65.5707 44.4123 63.8659 45.014 62.6626 45.5154C63.2643 46.2173 63.8659 46.9193 64.3673 47.7215C66.1723 46.7188 68.1779 45.8162 70.0832 45.1143C69.7824 43.7104 69.6821 43.0084 70.0832 42.8079C69.1807 43.1087 67.7768 43.5098 66.774 43.9109Z" fill="#2A72E5"/>
<path d="M86.9303 40.1005C85.0251 40.3011 82.5181 40.5016 80.6128 40.7022C79.61 40.9028 79.2089 41.3039 78.7075 42.808C81.3148 42.3066 83.8217 42.0058 86.429 41.8052C87.2312 40.7022 88.4345 40.0002 89.8384 40.0002L86.9303 40.1005Z" fill="#2A72E5"/>
<path d="M107.988 41.2035C106.183 40.9026 103.877 40.6018 102.072 40.4012C100.267 40.2007 98.462 40.6018 97.0581 41.6046C99.7656 41.7048 102.473 42.0057 105.181 42.4068C107.186 41.5043 109.392 41.3037 111.498 41.8051C110.395 41.7048 108.991 41.404 107.988 41.2035Z" fill="#2A72E5"/>
<path d="M126.841 47.2201C125.538 46.6184 123.733 45.8162 122.429 45.2145C119.822 44.1114 116.914 43.9109 114.206 44.5125C116.412 45.2145 118.518 46.0167 120.524 46.9192C124.134 46.5181 127.844 47.3203 130.852 49.3259C129.649 48.7242 128.145 47.8217 126.841 47.2201Z" fill="#2A72E5"/>
<path d="M145.694 66.8749C144.791 64.3679 143.588 61.9613 142.083 59.7551L141.181 58.4515C137.872 53.8387 132.657 50.9306 126.941 50.8303C128.245 51.8331 129.549 53.0365 130.551 54.3401C140.078 55.6437 146.696 64.0671 147.298 75.6994C147.198 72.7913 146.696 69.783 145.694 66.8749Z" fill="#2A72E5"/>
<path d="M132.056 102.574C133.861 101.371 135.566 100.067 137.271 98.5628C137.872 97.9612 138.674 97.1589 139.276 96.5573C151.209 82.7188 145.794 62.8637 132.959 59.2537C133.059 59.8553 133.159 60.5573 133.159 61.1589C133.159 61.2592 133.159 61.3595 133.159 61.4598C133.159 62.0614 133.059 62.7634 132.959 63.3651C146.596 69.5823 145.293 94.1506 130.752 103.376L132.056 102.574Z" fill="#2A72E5"/>
<path d="M114.106 109.894C115.911 109.393 118.217 108.791 120.022 108.189C137.571 101.571 140.379 74.6964 130.551 68.2786C129.448 69.5822 128.245 70.6852 126.941 71.688C135.264 80.8134 126.741 106.786 111.097 110.496L114.106 109.894Z" fill="#2A72E5"/>
<path d="M93.749 112C95.3535 112 97.5596 112 99.2643 111.9C113.805 110.396 124.133 83.7215 120.523 75.2981C118.518 76.2006 116.312 76.9025 114.206 77.5042C114.206 88.234 99.7657 112.1 89.437 111.799C90.7406 111.9 92.4454 112 93.749 112Z" fill="#2A72E5"/>
<path d="M72.5907 109.192C74.1951 109.593 76.4013 110.095 78.0057 110.395C84.1227 110.797 99.3651 90.2394 104.981 79.3091C102.273 79.6099 99.5656 79.9107 96.8581 79.9107C92.4458 84.2227 80.8135 97.6601 78.5071 100.267C72.5907 107.086 70.3846 108.39 69.6826 108.29L72.5907 109.192Z" fill="#2A72E5"/>
<path d="M54.9416 101.471C56.7466 102.674 58.5516 103.677 60.4569 104.68L60.6575 104.78C60.9583 103.075 75.4987 85.727 86.6296 79.61C84.0224 79.3092 81.4151 78.9081 78.9082 78.3064C65.5711 83.4206 51.9332 99.064 54.2396 100.969L54.9416 101.471Z" fill="#2A72E5"/>
<path d="M45.2145 92.1449C45.8161 92.9471 46.7187 94.1505 47.4206 94.9527C44.4122 90.3399 57.0474 78.507 70.1838 75.6992C68.1783 74.897 66.273 73.9945 64.468 72.9917C52.4345 74.2953 40.9025 82.819 43.3092 88.7354C43.8106 89.8385 44.6128 91.2424 45.2145 92.1449Z" fill="#2A72E5"/>
<path d="M40 75.3985C40 75.599 40 75.7996 40 76.0002C40.1003 77.0029 40.1003 78.3066 40.2005 79.3094C39.8997 72.7913 49.727 68.5795 58.8524 68.8804C57.7493 67.7773 56.7465 66.4737 56.0446 65.1701C48.4234 64.1673 44.2117 66.1729 42.0056 67.9779C40.702 70.2843 40.1003 72.7912 40 75.3985Z" fill="#2A72E5"/>
<path d="M200.549 55.2424H169.663V61.4597H181.496V96.5572H188.816V61.4597H200.549V55.2424Z" fill="black"/>
<path d="M224.014 68.6796C222.711 67.4763 221.106 66.4735 219.502 65.9721C215.591 64.6685 211.479 64.6685 207.569 65.9721C205.864 66.5738 204.36 67.4763 203.056 68.6796C201.752 69.883 200.75 71.3872 200.148 73.0919C199.446 74.9972 199.045 77.103 199.145 79.1086V82.7186C199.145 84.7242 199.446 86.8301 200.148 88.7354C200.75 90.4401 201.752 91.9443 203.056 93.1476C204.36 94.3509 205.864 95.3537 207.569 95.8551C211.479 97.1588 215.591 97.1588 219.502 95.8551C221.206 95.2535 222.711 94.3509 224.014 93.1476C225.318 91.844 226.321 90.3398 226.922 88.7354C227.624 86.8301 228.025 84.7242 227.925 82.7186V79.1086C227.925 77.0028 227.624 74.9972 226.922 73.0919C226.321 71.4874 225.318 69.9833 224.014 68.6796ZM216.393 90.2395C214.488 90.8412 212.482 90.8412 210.677 90.2395C209.875 89.9387 209.073 89.5376 208.371 88.8356C207.669 88.1337 207.167 87.3315 206.867 86.3287C206.465 85.1253 206.265 83.922 206.365 82.6184V79.2089C206.165 77.0028 206.867 74.7966 208.27 73.0919C211.379 70.6852 215.691 70.6852 218.8 73.0919C220.304 74.7966 221.006 77.0028 220.705 79.2089V82.6184C220.705 83.922 220.504 85.1253 220.103 86.3287C219.803 87.2312 219.301 88.1337 218.599 88.8356C217.997 89.4373 217.195 89.9387 216.393 90.2395Z" fill="black"/>
<path d="M261.017 65.6714H251.892L240.56 78.507V55.2424H233.34V96.4569H240.56V87.2313L243.97 83.4207L252.293 96.3566H261.519L249.084 78.3065L261.017 65.6714Z" fill="black"/>
<path d="M285.385 67.5767C284.181 66.6742 282.878 66.0726 281.474 65.6715C277.563 64.5684 273.351 64.769 269.541 66.2731C267.635 67.0754 265.931 67.9779 264.226 69.1812L264.126 69.2815L267.736 74.5962L267.836 74.496C270.243 72.4904 273.351 71.4876 276.46 71.4876C277.964 71.3873 279.368 71.7884 280.571 72.691C281.474 73.794 281.975 75.2982 281.875 76.7021V77.8052H274.956C273.151 77.8052 271.245 78.0057 269.44 78.5071C268.137 78.9082 266.833 79.5099 265.83 80.3121C264.928 81.0141 264.226 82.0169 263.825 83.1199C263.424 84.223 263.223 85.4263 263.223 86.6297V88.4347C263.123 90.8414 264.126 93.2481 266.031 94.8525C268.237 96.457 271.045 97.2592 273.752 97.1589C274.655 97.1589 275.457 97.0587 276.36 96.8581C277.262 96.6575 278.064 96.3567 278.967 96.0558C279.769 95.755 280.471 95.2536 281.173 94.7522C281.674 94.3511 282.075 93.8497 282.477 93.2481L282.577 96.7578H289.095V75.0976C289.095 73.6937 288.794 72.1895 288.192 70.8859C287.39 69.482 286.488 68.4792 285.385 67.5767ZM281.775 83.3205V84.0224C281.775 84.9249 281.775 85.9277 281.574 86.8302C281.474 87.6325 281.073 88.2341 280.471 88.8358C278.766 90.34 276.46 91.0419 274.153 90.8414C273.05 90.9417 271.947 90.6408 271.145 90.0391C270.443 89.5377 270.042 88.6352 270.142 87.7327V87.0308C270.142 86.028 270.443 85.0252 271.245 84.223C272.349 83.4208 273.652 83.0196 275.056 83.2202L281.775 83.3205Z" fill="black"/>
<path d="M335.925 67.9776C334.922 66.9748 333.819 66.2728 332.516 65.7714C331.212 65.2701 329.808 65.0695 328.404 65.0695C326.399 64.9692 324.493 65.3703 322.688 66.2728C321.184 67.0751 319.88 68.2784 318.978 69.6823C318.376 68.2784 317.273 67.075 315.869 66.3731C314.265 65.4706 312.56 65.0695 310.755 65.0695C308.95 65.0695 307.145 65.4706 305.541 66.2728C304.137 67.0751 303.034 68.1781 302.332 69.4817V65.6712H295.513V96.5569H302.733V77.6043C302.632 75.8996 303.134 74.1948 304.237 72.9915C305.34 71.9887 306.744 71.387 308.248 71.4873C308.95 71.4873 309.652 71.5876 310.354 71.7882C311.056 71.9887 311.557 72.3898 312.059 72.8912C312.56 73.4929 312.961 74.1948 313.262 74.8968C313.563 75.8996 313.763 77.0026 313.663 78.1057V96.6572H320.883V78.0054C320.883 76.9023 320.984 75.8996 321.385 74.8968C321.685 74.1948 322.087 73.4929 322.688 72.8912C323.19 72.3898 323.791 72.089 324.493 71.8884C325.797 71.4873 327.201 71.4873 328.605 71.8884C329.307 72.089 329.808 72.3898 330.309 72.8912C330.911 73.4929 331.312 74.1948 331.513 74.8968C331.814 75.9998 332.014 77.1029 331.914 78.3063V96.6572H339.134V76.8021C339.134 75.0974 338.833 73.2923 338.231 71.6879C337.73 70.1837 336.928 68.9803 335.925 67.9776Z" fill="black"/>
<path d="M366.51 67.5767C365.307 66.6742 364.003 66.0726 362.599 65.6715C358.688 64.5684 354.477 64.769 350.666 66.2731C348.761 67.0754 347.056 67.9779 345.351 69.1812L345.251 69.2815L348.861 74.5962L348.962 74.496C351.368 72.4904 354.477 71.4876 357.585 71.4876C359.09 71.3873 360.493 71.7884 361.697 72.691C362.599 73.794 363.101 75.2982 363.001 76.7021V77.8052H356.081C354.276 77.8052 352.371 78.0057 350.566 78.5071C349.262 78.9082 347.959 79.5099 346.956 80.3121C346.053 81.0141 345.351 82.0169 344.95 83.1199C344.549 84.223 344.349 85.4263 344.349 86.6297V88.4347C344.248 90.8414 345.251 93.2481 347.156 94.8525C349.363 96.457 352.17 97.2592 354.878 97.1589C355.78 97.1589 356.583 97.0587 357.485 96.8581C358.388 96.6575 359.19 96.3567 360.092 96.0558C360.895 95.755 361.597 95.2536 362.299 94.7522C362.8 94.3511 363.201 93.8497 363.602 93.2481L363.702 96.7578H370.221V75.0976C370.221 73.6937 369.92 72.1895 369.318 70.8859C368.516 69.482 367.613 68.4792 366.51 67.5767ZM362.9 83.3205V84.0224C362.9 84.9249 362.9 85.9277 362.7 86.8302C362.599 87.6325 362.198 88.2341 361.597 88.8358C359.892 90.34 357.585 91.0419 355.279 90.8414C354.176 90.9417 353.073 90.6408 352.271 90.0391C351.569 89.5377 351.168 88.6352 351.268 87.7327V87.0308C351.268 86.028 351.569 85.0252 352.371 84.223C353.474 83.4208 354.778 83.0196 356.182 83.2202L362.9 83.3205Z" fill="black"/>
<path d="M404.315 65.6714H395.19L383.858 78.507V55.2424H376.638V96.4569H383.858V87.2313L387.268 83.4207L395.591 96.3566H404.816L392.382 78.3065L404.315 65.6714Z" fill="black"/>
<path d="M443.624 80.6125L429.986 55.3423H421.663V96.5568H428.482V68.0777C428.482 68.0777 430.287 71.2866 430.788 72.1891L444.527 96.5568H452.85V55.3423H446.031V85.125C446.031 85.0248 444.025 81.3144 443.624 80.6125Z" fill="black"/>
<path d="M482.432 68.3787C481.229 67.1754 479.725 66.3731 478.12 65.8718C476.416 65.2701 474.51 64.9693 472.705 65.0695C470.8 65.0695 468.995 65.3704 467.19 65.8718C465.485 66.3731 463.981 67.2757 462.778 68.479C461.474 69.7826 460.471 71.2868 459.77 72.9915C458.967 75.0974 458.666 77.2032 458.666 79.4094V82.6183C458.566 85.025 458.967 87.3314 459.87 89.5375C460.572 91.2422 461.675 92.7464 463.079 93.9498C464.382 95.0528 465.987 95.8551 467.591 96.2562C469.296 96.7576 471.001 96.9581 472.806 96.9581C475.313 97.0584 477.82 96.7576 480.226 96.0556C482.132 95.5542 483.836 94.752 485.441 93.6489H485.541L482.533 88.4344H482.432C481.029 89.2367 479.524 89.9386 478.02 90.3398C476.416 90.7409 474.811 90.9414 473.207 90.9414C471.201 91.0417 469.196 90.44 467.691 89.1364C466.388 87.7325 465.686 85.7269 465.786 83.7214H486.343V78.6071C486.343 76.6016 486.042 74.596 485.341 72.6907C484.639 71.0863 483.636 69.5821 482.432 68.3787ZM472.605 70.986C473.608 70.986 474.711 71.0862 475.714 71.4874C476.516 71.7882 477.218 72.1893 477.82 72.791C478.321 73.2924 478.722 73.9943 479.023 74.6963C479.224 75.3982 479.424 76.2005 479.424 77.0027V78.206H465.786V77.103C465.786 75.4985 466.388 73.8941 467.491 72.6907C468.795 71.4874 470.7 70.8857 472.605 70.986Z" fill="black"/>
<path d="M507.903 89.9388C507.201 90.2396 506.399 90.4402 505.697 90.6408C504.995 90.741 504.293 90.8413 503.591 90.8413C502.789 90.8413 502.087 90.6408 501.485 90.2396C500.884 89.5377 500.583 88.6352 500.683 87.7327V71.6881H508.405V65.6714H500.683V55.2424L493.463 57.8496V65.6714H488.549V71.6881H493.463V87.7327C493.463 89.0363 493.563 90.3399 493.864 91.6435C494.165 92.7466 494.666 93.7494 495.368 94.5516C496.171 95.3538 497.173 96.0558 498.276 96.3566C499.68 96.7578 501.184 97.0586 502.689 96.9583C503.992 96.9583 505.196 96.858 506.399 96.5572C507.301 96.3566 508.204 96.0558 509.006 95.6547H509.106L508.003 89.8385L507.903 89.9388Z" fill="black"/>
<path d="M540.092 89.4371L534.777 65.7714V65.6711H528.059L522.543 89.4371H522.443L517.93 65.7714V65.6711H510.209L517.83 96.4566V96.5569H526.153L531.167 74.997H531.267L536.281 96.5569H544.605L552.226 65.8717V65.7714H545.006L540.092 89.4371Z" fill="black"/>
<path d="M579.301 68.6796C577.998 67.4763 576.393 66.4735 574.789 65.9721C570.978 64.6685 566.767 64.6685 562.856 65.9721C561.151 66.5738 559.647 67.4763 558.343 68.6796C557.04 69.883 556.037 71.3872 555.435 73.0919C554.733 74.9972 554.332 77.103 554.432 79.1086V82.7186C554.432 84.7242 554.733 86.8301 555.435 88.7354C556.037 90.4401 557.04 91.9443 558.343 93.1476C559.647 94.3509 561.151 95.3537 562.856 95.8551C566.767 97.1588 570.878 97.1588 574.789 95.8551C576.494 95.2535 577.998 94.3509 579.301 93.1476C580.605 91.844 581.608 90.3398 582.209 88.7354C582.911 86.8301 583.312 84.7242 583.212 82.7186V79.1086C583.212 77.0028 582.911 74.9972 582.209 73.0919C581.608 71.4874 580.605 69.9833 579.301 68.6796ZM571.68 90.2395C569.775 90.8412 567.769 90.8412 565.964 90.2395C565.162 89.9387 564.36 89.5376 563.658 88.8356C562.956 88.1337 562.455 87.3315 562.154 86.3287C561.753 85.1253 561.552 83.922 561.552 82.6184V79.2089C561.351 77.0028 562.053 74.7966 563.457 73.0919C566.566 70.6852 570.878 70.6852 573.987 73.0919C575.491 74.7966 576.193 77.0028 575.892 79.2089V82.6184C575.892 83.922 575.691 85.1253 575.39 86.3287C575.09 87.2312 574.588 88.1337 573.886 88.8356C573.285 89.4373 572.482 89.9387 571.68 90.2395Z" fill="black"/>
<path d="M606.578 65.1702C605.775 65.0699 604.973 64.9696 604.271 64.9696C602.366 64.8693 600.461 65.3707 598.856 66.3735C597.553 67.276 596.45 68.5797 595.647 69.9836V65.5713H588.728V96.4571H595.948V78.2064C595.948 77.3039 596.149 76.3011 596.449 75.4989C596.75 74.6966 597.252 73.9947 597.853 73.393C598.455 72.7913 599.157 72.29 599.959 71.9891C600.761 71.6883 601.664 71.4877 602.667 71.4877C603.369 71.4877 604.171 71.4877 604.873 71.6883C605.475 71.7886 605.976 71.9891 606.477 72.1897H606.578L608.683 65.6716H608.583C607.881 65.471 607.179 65.2705 606.578 65.1702Z" fill="black"/>
<path d="M627.736 78.507L639.769 65.6714H630.644L619.312 78.507V55.2424H612.092V96.4569H619.312V87.2313L622.722 83.4207L631.045 96.3566H640.271L627.736 78.507Z" fill="black"/>
<path d="M842.317 89.6513L833.8 67.9309C833.228 66.502 832.657 64.6729 831.685 61.7006V96.5103H824.883V55.2988H835.286L845.403 80.906L855.12 55.2988H865.638V96.5103H858.721V61.7006C857.864 65.1301 857.292 66.4448 856.778 67.9309L848.147 89.6513H842.317Z" fill="#2A72E5"/>
<path d="M796.588 96.5103L781.441 55.2988H789.272L800.075 87.5364L811.278 55.2988H818.708L803.161 96.5103H796.588Z" fill="#2A72E5"/>
<path d="M749.695 55.2988H776.217V61.3577H756.954V72.4465H775.017V78.391H756.954V90.4515H776.617V96.5103H749.695V55.2988Z" fill="#2A72E5"/>
<path d="M723.132 78.9052V72.9607H742.566V78.9052H723.132Z" fill="#2A72E5"/>
<path d="M719.589 65.0156L707.357 78.0478L720.103 96.5101H710.901L702.327 83.135L698.726 87.1361V96.5101H691.524V53.2981H698.726V78.3336L710.501 65.0156H719.589Z" fill="#2A72E5"/>
<path d="M684.948 65.0156V70.7315L669.515 90.2226H685.862V96.5101H660.026V91.5945L676.145 71.3031H661.17V65.0156H684.948Z" fill="#2A72E5"/>
</svg>
